#Comment line ignore any data following # character 
#Hierarchical Translation and Rotation (.htr) file 
[Header]	
#Header keywords are followed by a single value 
FileType HTR		#Single word string
DataType HTRS		#Translation followed by rotation and scale data
FileVersion 1		#integer
NumSegments 84		#integer
NumFrames 2		#integer
DataFrameRate 30		#integer, data frame rate in this file
EulerRotationOrder ZYX
CalibrationUnits mm
RotationUnits Degrees
GlobalAxisofGravity Y
BoneLengthAxis Y
ScaleFactor 1.00
[SegmentNames&Hierarchy]
#CHILD	PARENT
MASTER GLOBAL
root MASTER
chest root
L_mid_tent01 root
R_mid_tent01 root
spine01 root
Bip01_Neck chest
L_humerus chest
R_humerus chest
weapon_bone chest
Bip01_Head Bip01_Neck
eye_left_bone Bip01_Head
eye_right_bone Bip01_Head
L_forearm L_humerus
L_front_hand L_forearm
L_weapon_bone L_forearm
L_front_hand01_01 L_front_hand
L_front_hand02_01 L_front_hand
L_front_hand03_01 L_front_hand
L_front_hand01_02 L_front_hand01_01
L_front_hand02_02 L_front_hand02_01
L_front_hand03_02 L_front_hand03_01
R_forearm R_humerus
R_front_hand R_forearm
R_weapon_bone R_forearm
R_front_hand01_01 R_front_hand
R_front_hand02_01 R_front_hand
R_front_hand03_01 R_front_hand
R_front_hand01_02 R_front_hand01_01
R_front_hand02_02 R_front_hand02_01
R_front_hand03_02 R_front_hand03_01
null_rope01_connect L_mid_tent01
Rope1_Seg01 null_rope01_connect
Rope1_Seg02 Rope1_Seg01
Rope1_Seg03 Rope1_Seg02
Rope1_Seg04 Rope1_Seg03
Rope1_Seg05 Rope1_Seg04
Rope1_Seg06 Rope1_Seg05
Rope1_Seg07 Rope1_Seg06
Rope1_Seg09 Rope1_Seg07
L_mid_hand01 Rope1_Seg09
L_mid_hand02 Rope1_Seg09
L_mid_hand03 Rope1_Seg09
null_rope02_connect R_mid_tent01
Rope2_Seg01 null_rope02_connect
Rope2_Seg02 Rope2_Seg01
Rope2_Seg03 Rope2_Seg02
Rope2_Seg04 Rope2_Seg03
Rope2_Seg05 Rope2_Seg04
Rope2_Seg06 Rope2_Seg05
Rope2_Seg07 Rope2_Seg06
Rope2_Seg09 Rope2_Seg07
R_mid_hand01 Rope2_Seg09
R_mid_hand02 Rope2_Seg09
R_mid_hand03 Rope2_Seg09
spine02 spine01
spine03 spine02
pelvis spine03
null_rope03_connect pelvis
null_rope04_connect pelvis
Rope3_Seg01 null_rope03_connect
Rope3_Seg02 Rope3_Seg01
Rope3_Seg03 Rope3_Seg02
Rope3_Seg04 Rope3_Seg03
Rope3_Seg05 Rope3_Seg04
Rope3_Seg06 Rope3_Seg05
Rope3_Seg07 Rope3_Seg06
Rope3_Seg08 Rope3_Seg07
Rope3_Seg09 Rope3_Seg08
R_rear_hand01 Rope3_Seg09
R_rear_hand02 Rope3_Seg09
R_rear_hand03 Rope3_Seg09
Rope4_Seg01 null_rope04_connect
Rope4_Seg02 Rope4_Seg01
Rope4_Seg03 Rope4_Seg02
Rope4_Seg04 Rope4_Seg03
Rope4_Seg05 Rope4_Seg04
Rope4_Seg06 Rope4_Seg05
Rope4_Seg07 Rope4_Seg06
Rope4_Seg08 Rope4_Seg07
Rope4_Seg09 Rope4_Seg08
L_rear_hand01 Rope4_Seg09
L_rear_hand02 Rope4_Seg09
L_rear_hand03 Rope4_Seg09
[BasePosition]
#SegmentName Tx, Ty, Tz, Rx, Ry, Rz, BoneLength
MASTER 0.000000 0.000000 0.000000 -90.000000 0.000000 0.000000 10.000000 
root 0.000000 0.000000 0.000000 0.000000 0.000000 0.000000 10.000000 
chest 0.000000 0.000000 0.000000 0.000000 0.000000 0.000000 10.000000 
L_mid_tent01 0.000000 0.000000 0.000000 0.000000 0.000000 0.000000 10.000000 
R_mid_tent01 0.000000 0.000000 0.000000 0.000000 0.000000 0.000000 10.000000 
spine01 0.000000 0.000000 0.000000 0.000000 0.000000 0.000000 10.000000 
Bip01_Neck 0.000000 0.000000 0.000000 0.000000 0.000000 0.000000 10.000000 
L_humerus 0.000000 0.000000 0.000000 0.000000 0.000000 0.000000 10.000000 
R_humerus 0.000000 0.000000 0.000000 0.000000 0.000000 0.000000 10.000000 
weapon_bone 0.000000 0.000000 0.000000 0.000000 0.000000 0.000000 10.000000 
Bip01_Head 0.000000 0.000000 0.000000 0.000000 0.000000 0.000000 10.000000 
eye_left_bone 0.000000 0.000000 0.000000 0.000000 0.000000 0.000000 10.000000 
eye_right_bone 0.000000 0.000000 0.000000 0.000000 0.000000 0.000000 10.000000 
L_forearm 0.000000 0.000000 0.000000 0.000000 0.000000 0.000000 10.000000 
L_front_hand 0.000000 0.000000 0.000000 0.000000 0.000000 0.000000 10.000000 
L_weapon_bone 0.000000 0.000000 0.000000 0.000000 0.000000 0.000000 10.000000 
L_front_hand01_01 0.000000 0.000000 0.000000 0.000000 0.000000 0.000000 10.000000 
L_front_hand02_01 0.000000 0.000000 0.000000 0.000000 0.000000 0.000000 10.000000 
L_front_hand03_01 0.000000 0.000000 0.000000 0.000000 0.000000 0.000000 10.000000 
L_front_hand01_02 0.000000 0.000000 0.000000 0.000000 0.000000 0.000000 10.000000 
L_front_hand02_02 0.000000 0.000000 0.000000 0.000000 0.000000 0.000000 10.000000 
L_front_hand03_02 0.000000 0.000000 0.000000 0.000000 0.000000 0.000000 10.000000 
R_forearm 0.000000 0.000000 0.000000 0.000000 0.000000 0.000000 10.000000 
R_front_hand 0.000000 0.000000 0.000000 0.000000 0.000000 0.000000 10.000000 
R_weapon_bone 0.000000 0.000000 0.000000 0.000000 0.000000 0.000000 10.000000 
R_front_hand01_01 0.000000 0.000000 0.000000 0.000000 0.000000 0.000000 10.000000 
R_front_hand02_01 0.000000 0.000000 0.000000 0.000000 0.000000 0.000000 10.000000 
R_front_hand03_01 0.000000 0.000000 0.000000 0.000000 0.000000 0.000000 10.000000 
R_front_hand01_02 0.000000 0.000000 0.000000 0.000000 0.000000 0.000000 10.000000 
R_front_hand02_02 0.000000 0.000000 0.000000 0.000000 0.000000 0.000000 10.000000 
R_front_hand03_02 0.000000 0.000000 0.000000 0.000000 0.000000 0.000000 10.000000 
null_rope01_connect 0.000000 0.000000 0.000000 0.000000 0.000000 0.000000 10.000000 
Rope1_Seg01 0.000000 0.000000 0.000000 0.000000 0.000000 0.000000 10.000000 
Rope1_Seg02 0.000000 0.000000 0.000000 0.000000 0.000000 0.000000 10.000000 
Rope1_Seg03 0.000000 0.000000 0.000000 0.000000 0.000000 0.000000 10.000000 
Rope1_Seg04 0.000000 0.000000 0.000000 0.000000 0.000000 0.000000 10.000000 
Rope1_Seg05 0.000000 0.000000 0.000000 0.000000 0.000000 0.000000 10.000000 
Rope1_Seg06 0.000000 0.000000 0.000000 0.000000 0.000000 0.000000 10.000000 
Rope1_Seg07 0.000000 0.000000 0.000000 0.000000 0.000000 0.000000 10.000000 
Rope1_Seg09 0.000000 0.000000 0.000000 0.000000 0.000000 0.000000 10.000000 
L_mid_hand01 0.000000 0.000000 0.000000 0.000000 0.000000 0.000000 10.000000 
L_mid_hand02 0.000000 0.000000 0.000000 0.000000 0.000000 0.000000 10.000000 
L_mid_hand03 0.000000 0.000000 0.000000 0.000000 0.000000 0.000000 10.000000 
null_rope02_connect 0.000000 0.000000 0.000000 0.000000 0.000000 0.000000 10.000000 
Rope2_Seg01 0.000000 0.000000 0.000000 0.000000 0.000000 0.000000 10.000000 
Rope2_Seg02 0.000000 0.000000 0.000000 0.000000 0.000000 0.000000 10.000000 
Rope2_Seg03 0.000000 0.000000 0.000000 0.000000 0.000000 0.000000 10.000000 
Rope2_Seg04 0.000000 0.000000 0.000000 0.000000 0.000000 0.000000 10.000000 
Rope2_Seg05 0.000000 0.000000 0.000000 0.000000 0.000000 0.000000 10.000000 
Rope2_Seg06 0.000000 0.000000 0.000000 0.000000 0.000000 0.000000 10.000000 
Rope2_Seg07 0.000000 0.000000 0.000000 0.000000 0.000000 0.000000 10.000000 
Rope2_Seg09 0.000000 0.000000 0.000000 0.000000 0.000000 0.000000 10.000000 
R_mid_hand01 0.000000 0.000000 0.000000 0.000000 0.000000 0.000000 10.000000 
R_mid_hand02 0.000000 0.000000 0.000000 0.000000 0.000000 0.000000 10.000000 
R_mid_hand03 0.000000 0.000000 0.000000 0.000000 0.000000 0.000000 10.000000 
spine02 0.000000 0.000000 0.000000 0.000000 0.000000 0.000000 10.000000 
spine03 0.000000 0.000000 0.000000 0.000000 0.000000 0.000000 10.000000 
pelvis 0.000000 0.000000 0.000000 0.000000 0.000000 0.000000 10.000000 
null_rope03_connect 0.000000 0.000000 0.000000 0.000000 0.000000 0.000000 10.000000 
null_rope04_connect 0.000000 0.000000 0.000000 0.000000 0.000000 0.000000 10.000000 
Rope3_Seg01 0.000000 0.000000 0.000000 0.000000 0.000000 0.000000 10.000000 
Rope3_Seg02 0.000000 0.000000 0.000000 0.000000 0.000000 0.000000 10.000000 
Rope3_Seg03 0.000000 0.000000 0.000000 0.000000 0.000000 0.000000 10.000000 
Rope3_Seg04 0.000000 0.000000 0.000000 0.000000 0.000000 0.000000 10.000000 
Rope3_Seg05 0.000000 0.000000 0.000000 0.000000 0.000000 0.000000 10.000000 
Rope3_Seg06 0.000000 0.000000 0.000000 0.000000 0.000000 0.000000 10.000000 
Rope3_Seg07 0.000000 0.000000 0.000000 0.000000 0.000000 0.000000 10.000000 
Rope3_Seg08 0.000000 0.000000 0.000000 0.000000 0.000000 0.000000 10.000000 
Rope3_Seg09 0.000000 0.000000 0.000000 0.000000 0.000000 0.000000 10.000000 
R_rear_hand01 0.000000 0.000000 0.000000 0.000000 0.000000 0.000000 10.000000 
R_rear_hand02 0.000000 0.000000 0.000000 0.000000 0.000000 0.000000 10.000000 
R_rear_hand03 0.000000 0.000000 0.000000 0.000000 0.000000 0.000000 10.000000 
Rope4_Seg01 0.000000 0.000000 0.000000 0.000000 0.000000 0.000000 10.000000 
Rope4_Seg02 0.000000 0.000000 0.000000 0.000000 0.000000 0.000000 10.000000 
Rope4_Seg03 0.000000 0.000000 0.000000 0.000000 0.000000 0.000000 10.000000 
Rope4_Seg04 0.000000 0.000000 0.000000 0.000000 0.000000 0.000000 10.000000 
Rope4_Seg05 0.000000 0.000000 0.000000 0.000000 0.000000 0.000000 10.000000 
Rope4_Seg06 0.000000 0.000000 0.000000 0.000000 0.000000 0.000000 10.000000 
Rope4_Seg07 0.000000 0.000000 0.000000 0.000000 0.000000 0.000000 10.000000 
Rope4_Seg08 0.000000 0.000000 0.000000 0.000000 0.000000 0.000000 10.000000 
Rope4_Seg09 0.000000 0.000000 0.000000 0.000000 0.000000 0.000000 10.000000 
L_rear_hand01 0.000000 0.000000 0.000000 0.000000 0.000000 0.000000 10.000000 
L_rear_hand02 0.000000 0.000000 0.000000 0.000000 0.000000 0.000000 10.000000 
L_rear_hand03 0.000000 0.000000 0.000000 0.000000 0.000000 0.000000 10.000000 
#Beginning of Data. Separated by tabs
#Fr	Tx	Ty	Tz	Rx	Ry	Rz	SF
[MASTER]
10 -0.000262 1802.024902 2385.403809 0.001660 0.001660 0.001660 2989.555908
11 -0.000302 2070.102295 2469.674316 0.001660 0.001660 0.001660 3222.516846
[root]
10 -55.713257 72.051086 1684.058105 -61.475998 -12.682182 -90.584579 1686.519165
11 -63.374168 98.402153 1687.189331 -61.475998 -12.682186 -90.584572 1691.244263
[chest]
10 -84.512650 -34.090519 0.000000 6.273628 -0.758307 156.285751 91.129311
11 -84.512650 -34.090519 0.000000 5.978976 -0.586718 155.383545 91.129311
[L_mid_tent01]
10 27.299425 22.177948 -249.918228 -7.421603 43.670403 48.806484 252.381134
11 27.299417 22.178005 -249.918243 -9.063527 45.515701 45.538708 252.381165
[R_mid_tent01]
10 23.228794 24.509907 226.238495 -88.934387 -20.777622 -7.307502 228.744751
11 23.228794 24.509907 226.238495 -87.917015 -22.133348 -11.311816 228.744751
[spine01]
10 -0.361383 -0.195265 0.000000 0.629008 0.261824 18.502501 0.410763
11 -0.361383 -0.195265 0.000000 0.606106 0.251708 18.628723 0.410763
[Bip01_Neck]
10 165.484543 71.581718 0.000119 175.896118 1.177290 24.871185 180.302734
11 165.484543 71.581718 0.000119 175.896118 1.177290 24.871183 180.302734
[L_humerus]
10 -13.983130 -135.272980 -120.471481 -169.133514 83.244652 -79.042221 181.680161
11 -13.983130 -135.272980 -120.471481 -167.114166 84.167969 -77.024651 181.680161
[R_humerus]
10 -13.983309 -135.273102 125.287651 -84.054703 -43.078815 -173.732117 184.909012
11 -13.983309 -135.273102 125.287651 -80.721420 -39.227459 -175.891006 184.909012
[weapon_bone]
10 235.964890 -300.705902 0.000000 0.000000 -89.951546 -128.212341 382.234833
11 235.964890 -300.705902 0.000000 0.000000 -89.951546 -128.212341 382.234833
[Bip01_Head]
10 247.423859 159.288940 -8.498383 7.930267 5.845776 -62.454689 294.387085
11 246.494415 162.646317 -8.667360 8.326908 5.844137 -62.457401 295.446167
[eye_left_bone]
10 -24.626970 125.451866 -64.772606 0.000000 -90.000000 -99.840431 143.318359
11 -24.626970 125.451866 -64.772606 0.000000 -90.000000 -99.840431 143.318359
[eye_right_bone]
10 -24.626970 125.451866 64.327362 0.000000 -89.960434 80.159386 143.117676
11 -24.626970 125.451866 64.327362 0.000000 -89.960434 80.159386 143.117676
[L_forearm]
10 322.776093 0.000000 -0.000119 0.000229 -0.002336 -101.199532 322.776093
11 322.776093 0.000000 -0.000119 0.000236 -0.002335 -101.519188 322.776093
[L_front_hand]
10 241.149185 -0.042021 -3.300071 -178.667953 -1.835447 -27.422350 241.171753
11 241.149185 -0.042021 -3.300071 -178.667953 -1.835447 -27.422350 241.171753
[L_weapon_bone]
10 156.183838 0.000000 0.000000 0.000014 0.000007 0.000001 156.183838
11 156.183838 0.000000 0.000000 0.000014 0.000007 0.000001 156.183838
[L_front_hand01_01]
10 86.095154 20.947098 -0.655860 -0.366594 -0.477154 75.385574 88.609184
11 86.095154 20.947098 -0.655860 -0.366594 -0.477154 75.385574 88.609184
[L_front_hand02_01]
10 86.935165 -11.437475 24.513514 154.403488 -59.888916 -61.371967 91.046425
11 86.935165 -11.437475 24.513514 154.403519 -59.888931 -61.371990 91.046425
[L_front_hand03_01]
10 86.637497 -14.123976 -20.424902 -153.913849 58.118107 -62.702866 90.126129
11 86.637497 -14.123976 -20.424902 -153.913849 58.118122 -62.702866 90.126129
[L_front_hand01_02]
10 71.020905 -0.000179 0.000030 0.000334 -0.002323 -106.379684 71.020905
11 71.020905 -0.000179 0.000030 0.000334 -0.002323 -106.379684 71.020905
[L_front_hand02_02]
10 71.020927 -0.000119 0.000060 0.000334 -0.002323 -106.379684 71.020927
11 71.020927 -0.000119 0.000060 0.000334 -0.002323 -106.379684 71.020927
[L_front_hand03_02]
10 71.020905 -0.000060 0.000060 0.000334 -0.002323 -106.379684 71.020905
11 71.020905 -0.000060 0.000060 0.000334 -0.002323 -106.379684 71.020905
[R_forearm]
10 322.776428 -0.000060 0.000030 0.206320 0.061537 -107.665115 322.776428
11 322.776428 -0.000060 0.000030 0.206362 0.061394 -107.585449 322.776428
[R_front_hand]
10 238.847015 -0.006795 2.210259 -18.946560 -1.396798 -24.030428 238.857239
11 238.847015 -0.006795 2.210259 -19.391247 -0.863279 -20.657028 238.857239
[R_weapon_bone]
10 155.664093 0.002503 -0.000030 0.003487 0.001180 -90.988930 155.664078
11 155.664093 0.002503 -0.000030 0.003487 0.001180 -90.988930 155.664078
[R_front_hand01_01]
10 87.624611 14.231146 22.918642 -116.960213 3.496675 -1.324139 91.683487
11 87.624611 14.231146 22.918642 -116.960213 3.496675 -1.324139 91.683487
[R_front_hand02_01]
10 89.356956 14.367283 -19.491137 118.419647 -4.257089 0.609827 92.579636
11 89.356956 14.367283 -19.491137 118.419647 -4.257089 0.609827 92.579636
[R_front_hand03_01]
10 87.286232 -22.307278 -0.143439 -0.387970 -0.231462 4.232001 90.091743
11 87.286232 -22.307278 -0.143439 -0.387970 -0.231462 4.232001 90.091743
[R_front_hand01_02]
10 71.020905 0.000060 0.000119 0.001777 0.001534 8.377220 71.020905
11 71.020905 0.000060 0.000119 0.001777 0.001534 8.377220 71.020905
[R_front_hand02_02]
10 71.020844 -0.000030 -0.000119 0.001777 0.001534 8.377220 71.020836
11 71.020844 -0.000030 -0.000119 0.001777 0.001534 8.377220 71.020836
[R_front_hand03_02]
10 71.020905 0.000000 0.000030 0.001777 0.001534 8.377220 71.020905
11 71.020905 0.000000 0.000030 0.001777 0.001534 8.377220 71.020905
[null_rope01_connect]
10 328.732483 0.000000 -0.000238 -104.581444 -65.910011 149.945068 328.732483
11 328.732483 0.000000 -0.000238 -105.664726 -63.701843 152.966309 328.732483
[Rope1_Seg01]
10 0.000000 0.000000 0.000000 150.552567 37.204956 -155.924316 0.000000
11 0.000000 0.000000 0.000000 135.430771 28.388491 -159.128540 0.000000
[Rope1_Seg02]
10 139.999863 -0.000179 0.000000 14.528827 -30.750462 5.158617 139.999863
11 139.999863 -0.000179 0.000000 21.618103 -32.012230 -2.941121 139.999863
[Rope1_Seg03]
10 139.999924 0.000060 -0.000060 0.779357 -24.249743 11.677386 139.999924
11 139.999924 0.000060 -0.000060 3.009199 -28.880045 8.114431 139.999924
[Rope1_Seg04]
10 139.999924 -0.000060 -0.000119 -0.861408 -12.487461 6.696863 139.999924
11 139.999924 -0.000060 -0.000119 -1.005021 -14.626336 5.777587 139.999924
[Rope1_Seg05]
10 139.999832 0.000119 -0.000060 -2.126188 -12.688496 7.200234 139.999832
11 139.999832 0.000119 -0.000060 -3.138876 -15.426592 8.211514 139.999832
[Rope1_Seg06]
10 139.999954 0.000119 -0.000060 -3.795068 -12.985067 7.101130 139.999954
11 139.999954 0.000119 -0.000060 -5.332631 -14.771027 7.627032 139.999954
[Rope1_Seg07]
10 139.999985 0.000060 0.000000 -2.966955 -7.295134 3.398691 139.999985
11 139.999985 0.000060 0.000000 -4.018232 -7.555431 2.900814 139.999985
[Rope1_Seg09]
10 121.602913 0.000119 -0.000089 -89.793175 -1.359789 0.847147 121.602913
11 121.602913 0.000119 -0.000089 -89.793175 -1.359789 0.847147 121.602913
[L_mid_hand01]
10 103.859421 1.038730 8.195221 114.520287 -53.310486 -20.623234 104.187431
11 103.859421 1.038730 8.195221 114.520287 -53.310486 -20.623234 104.187431
[L_mid_hand02]
10 105.572853 -4.139662 -10.864139 -155.067673 38.166618 -52.448807 106.211075
11 105.572853 -4.139662 -10.864139 -155.067673 38.166626 -52.448818 106.211075
[L_mid_hand03]
10 104.641464 17.579376 -3.913581 -10.970129 15.317457 57.626934 106.179977
11 104.641464 17.579376 -3.913581 -10.970130 15.317461 57.626949 106.179977
[null_rope02_connect]
10 328.732849 0.000179 -0.000119 -159.063065 -29.087051 -73.632210 328.732849
11 328.732849 0.000179 -0.000119 -154.852722 -29.676643 -74.242027 328.732849
[Rope2_Seg01]
10 -0.000015 -0.000033 0.000037 5.752501 -21.373362 -29.576143 0.000052
11 -0.000012 -0.000054 0.000041 12.462501 -22.505171 -34.259319 0.000069
[Rope2_Seg02]
10 139.999741 -0.000060 -0.000119 -12.570991 4.319849 11.602365 139.999756
11 139.999741 -0.000060 -0.000119 -12.271573 3.737928 11.645839 139.999756
[Rope2_Seg03]
10 140.000107 0.000030 0.000000 -20.656630 2.758295 30.765842 140.000107
11 140.000107 0.000030 0.000000 -20.252298 0.760762 32.562176 140.000107
[Rope2_Seg04]
10 139.999802 0.000000 -0.000060 -12.214304 -11.741720 40.583313 139.999802
11 139.999802 0.000000 -0.000060 -10.978619 -12.695976 42.253376 139.999802
[Rope2_Seg05]
10 139.999985 -0.000060 0.000119 2.266347 -0.054330 24.206131 139.999985
11 139.999985 -0.000060 0.000119 5.380918 4.424798 28.204735 139.999985
[Rope2_Seg06]
10 139.999893 -0.000030 -0.000119 3.266372 2.312427 14.002843 139.999893
11 139.999893 -0.000030 -0.000119 3.716879 3.836377 14.078069 139.999893
[Rope2_Seg07]
10 139.999893 0.000060 -0.000060 1.738624 0.541476 6.869564 139.999893
11 139.999893 0.000060 -0.000060 1.675784 1.403597 6.436307 139.999893
[Rope2_Seg09]
10 121.338966 0.000089 -0.000060 84.057106 0.210792 -1.538940 121.338966
11 121.338966 0.000089 -0.000060 88.648300 0.307077 -1.543669 121.338966
[R_mid_hand01]
10 104.680779 11.144459 -10.335981 -47.384243 2.963521 5.452602 105.778534
11 104.680779 11.144459 -10.335981 -47.384258 2.963624 5.452698 105.778534
[R_mid_hand02]
10 104.070427 2.443552 8.231699 75.626297 -2.250001 1.111093 104.424065
11 104.070427 2.443552 8.231699 75.626297 -2.250136 1.111127 104.424065
[R_mid_hand03]
10 106.028137 -11.221827 -5.996406 -164.381927 2.495983 -6.140520 106.788818
11 106.028137 -11.221827 -5.996406 -164.381927 2.496022 -6.140656 106.788818
[spine02]
10 129.756927 0.001550 0.000119 -0.252375 -10.216769 -4.326527 129.756927
11 129.756927 0.001550 0.000119 -0.252592 -11.002123 -4.327530 129.756927
[spine03]
10 78.557167 0.094833 -5.452413 0.715808 4.824976 0.853552 78.746208
11 78.557259 0.094706 -5.451516 0.760400 4.799092 1.389912 78.746246
[pelvis]
10 169.435242 0.051022 0.000000 -0.052879 -0.487211 4.674995 169.435257
11 169.435242 0.051022 0.000000 -0.054016 -0.481119 5.003610 169.435257
[null_rope03_connect]
10 -1.257226 -2.466202 137.391083 21.760946 -58.974960 62.732044 137.418976
11 -1.257226 -2.466202 137.391083 23.200678 -58.671879 60.498291 137.418976
[null_rope04_connect]
10 -1.259640 -2.480268 -137.844437 21.760946 -58.974960 62.732044 137.872513
11 -1.259640 -2.480268 -137.844437 23.200678 -58.671879 60.498291 137.872513
[Rope3_Seg01]
10 -0.000026 -0.000177 0.000000 -135.822372 -31.669647 -71.826416 0.000179
11 -0.000026 -0.000193 0.000000 -137.093323 -31.204132 -68.948318 0.000195
[Rope3_Seg02]
10 139.999924 -0.000119 0.000060 -3.006727 4.241871 -10.098173 139.999924
11 139.999924 -0.000119 0.000060 -3.351583 6.209051 -7.980498 139.999924
[Rope3_Seg03]
10 139.999924 -0.000119 0.000119 -21.098087 15.386292 -32.411541 139.999924
11 139.999924 -0.000119 0.000119 -16.120520 20.291248 -23.583635 139.999924
[Rope3_Seg04]
10 139.999924 0.000119 0.000000 -45.756023 31.967766 -41.868168 139.999924
11 139.999924 0.000119 0.000000 -28.100065 37.109585 -30.787525 139.999924
[Rope3_Seg05]
10 139.999924 -0.000238 0.000060 -26.747540 44.827702 -21.996500 139.999924
11 139.999924 -0.000238 0.000060 -21.378469 41.657974 -28.612711 139.999924
[Rope3_Seg06]
10 139.999893 -0.000119 -0.000060 -1.224010 15.905627 -0.873483 139.999893
11 139.999893 -0.000119 -0.000060 -2.769939 22.264250 -8.369669 139.999893
[Rope3_Seg07]
10 139.999771 0.000060 -0.000119 0.447845 5.583000 -0.090387 139.999771
11 139.999771 0.000060 -0.000119 0.427177 6.844266 -1.999333 139.999771
[Rope3_Seg08]
10 139.999985 -0.000060 0.000000 0.598624 2.762010 -0.068013 139.999985
11 139.999985 -0.000060 0.000000 0.617803 3.212257 -0.965627 139.999985
[Rope3_Seg09]
10 90.185997 -0.000179 -0.000060 76.291809 -1.359122 -0.845247 90.185997
11 90.185997 -0.000179 -0.000060 74.404732 -1.358855 -0.849376 90.185997
[R_rear_hand01]
10 103.366196 -6.073594 -10.757982 -173.719330 23.898943 -64.208557 104.101845
11 103.366196 -6.073594 -10.757982 -176.613388 24.447430 -71.266006 104.101845
[R_rear_hand02]
10 100.509819 12.039542 -7.992327 -19.009048 34.423050 61.661335 101.543350
11 100.509819 12.039542 -7.992327 -14.613211 36.296528 69.251999 101.543350
[R_rear_hand03]
10 101.539970 5.215704 5.435467 77.282021 -63.257477 15.261508 101.819031
11 101.539970 5.215704 5.435467 73.547066 -69.515717 19.328257 101.819031
[Rope4_Seg01]
10 -0.000014 -0.000206 -0.000153 63.129295 -18.790564 -161.768585 0.000257
11 -0.000014 -0.000221 -0.000153 74.900299 -25.223852 -162.357269 0.000269
[Rope4_Seg02]
10 139.999985 0.000060 0.000119 -20.412109 -6.617604 -11.860051 139.999985
11 139.999985 0.000060 0.000119 -5.622780 -7.389851 -6.406933 139.999985
[Rope4_Seg03]
10 139.999924 0.000000 -0.000238 -79.093964 -3.451704 -27.635695 139.999924
11 139.999924 0.000000 -0.000238 -79.481964 -13.665457 -14.969676 139.999924
[Rope4_Seg04]
10 139.999985 0.000000 0.000119 -21.692377 32.878387 -6.280756 139.999985
11 139.999985 0.000000 0.000119 -66.516708 25.126923 -26.576462 139.999985
[Rope4_Seg05]
10 139.999802 -0.000060 -0.000119 -6.688191 19.944265 -3.600127 139.999802
11 139.999802 -0.000060 -0.000119 -6.712539 25.980778 1.853126 139.999802
[Rope4_Seg06]
10 139.999924 0.000000 0.000060 -5.986260 22.367275 -10.765114 139.999924
11 139.999924 0.000000 0.000060 -7.002780 24.741777 -8.148860 139.999924
[Rope4_Seg07]
10 139.999802 0.000000 0.000000 -0.104821 16.145844 -5.294971 139.999802
11 139.999802 0.000000 0.000000 -0.379314 17.169292 -3.252100 139.999802
[Rope4_Seg08]
10 139.999924 0.000000 0.000119 -0.527453 7.595860 -1.996266 139.999924
11 139.999924 0.000000 0.000119 -0.764527 7.658878 -0.708769 139.999924
[Rope4_Seg09]
10 90.185791 0.000060 0.000060 -135.617828 2.228885 0.850567 90.185791
11 90.185791 0.000060 0.000060 -135.617828 2.228885 0.850567 90.185791
[L_rear_hand01]
10 101.696655 -8.392275 -7.654577 -19.915020 -33.950905 119.950104 102.329041
11 101.696655 -8.392275 -7.654577 -19.915020 -33.950905 119.950104 102.329041
[L_rear_hand02]
10 102.726799 -1.568258 5.773216 77.862221 61.878510 165.399200 102.900848
11 102.726799 -1.568258 5.773216 77.862221 61.878510 165.399200 102.900848
[L_rear_hand03]
10 104.552910 9.721220 -10.420293 -173.099182 -23.740307 -117.327896 105.519653
11 104.552910 9.721220 -10.420293 -173.099182 -23.740307 -117.327896 105.519653
